<mxfile host="app.diagrams.net" modified="2023-04-07T04:31:12.250Z" agent="Mozilla/5.0 (Windows NT 10.0; Win64; x64) AppleWebKit/537.36 (KHTML, like Gecko) Chrome/111.0.0.0 Safari/537.36 Edg/111.0.1661.62" etag="UH-gcaCspvxHCVA9Rr69" version="21.1.5" type="device">
  <diagram name="Page-1" id="2YBvvXClWsGukQMizWep">
    <mxGraphModel dx="1434" dy="834" grid="1" gridSize="10" guides="1" tooltips="1" connect="1" arrows="1" fold="1" page="1" pageScale="1" pageWidth="850" pageHeight="1100" math="0" shadow="0">
      <root>
        <mxCell id="0" />
        <mxCell id="1" parent="0" />
        <mxCell id="dCZkg5oeTAdfZq6XIlCl-5" value="" style="rounded=0;whiteSpace=wrap;html=1;" vertex="1" parent="1">
          <mxGeometry x="160" y="80" width="320" height="210" as="geometry" />
        </mxCell>
        <mxCell id="dCZkg5oeTAdfZq6XIlCl-6" value="" style="rounded=0;whiteSpace=wrap;html=1;" vertex="1" parent="1">
          <mxGeometry x="160" y="290" width="320" height="210" as="geometry" />
        </mxCell>
        <mxCell id="dCZkg5oeTAdfZq6XIlCl-7" value="Front-End&lt;br&gt;" style="rounded=0;whiteSpace=wrap;html=1;flipV=0;flipH=1;" vertex="1" parent="1">
          <mxGeometry x="70" y="80" width="90" height="210" as="geometry" />
        </mxCell>
        <mxCell id="dCZkg5oeTAdfZq6XIlCl-8" value="Back-End" style="rounded=0;whiteSpace=wrap;html=1;" vertex="1" parent="1">
          <mxGeometry x="70" y="290" width="90" height="210" as="geometry" />
        </mxCell>
        <mxCell id="dCZkg5oeTAdfZq6XIlCl-13" style="edgeStyle=orthogonalEdgeStyle;rounded=0;orthogonalLoop=1;jettySize=auto;html=1;exitX=0.5;exitY=1;exitDx=0;exitDy=0;entryX=0.5;entryY=0;entryDx=0;entryDy=0;" edge="1" parent="1" source="dCZkg5oeTAdfZq6XIlCl-9" target="dCZkg5oeTAdfZq6XIlCl-10">
          <mxGeometry relative="1" as="geometry" />
        </mxCell>
        <mxCell id="dCZkg5oeTAdfZq6XIlCl-9" value="Web Funix Swap&lt;br&gt;&lt;br&gt;HTML, CSS, JS&amp;nbsp;" style="rounded=1;whiteSpace=wrap;html=1;" vertex="1" parent="1">
          <mxGeometry x="330" y="110" width="120" height="60" as="geometry" />
        </mxCell>
        <mxCell id="dCZkg5oeTAdfZq6XIlCl-16" style="edgeStyle=orthogonalEdgeStyle;rounded=0;orthogonalLoop=1;jettySize=auto;html=1;exitX=0.5;exitY=1;exitDx=0;exitDy=0;entryX=0.5;entryY=0;entryDx=0;entryDy=0;" edge="1" parent="1" source="dCZkg5oeTAdfZq6XIlCl-10" target="dCZkg5oeTAdfZq6XIlCl-14">
          <mxGeometry relative="1" as="geometry" />
        </mxCell>
        <mxCell id="dCZkg5oeTAdfZq6XIlCl-10" value="Web3" style="rounded=1;whiteSpace=wrap;html=1;arcSize=30;" vertex="1" parent="1">
          <mxGeometry x="330" y="210" width="120" height="50" as="geometry" />
        </mxCell>
        <mxCell id="dCZkg5oeTAdfZq6XIlCl-17" style="edgeStyle=orthogonalEdgeStyle;rounded=0;orthogonalLoop=1;jettySize=auto;html=1;exitX=0;exitY=1;exitDx=0;exitDy=0;entryX=1;entryY=0;entryDx=0;entryDy=0;" edge="1" parent="1" source="dCZkg5oeTAdfZq6XIlCl-14" target="dCZkg5oeTAdfZq6XIlCl-15">
          <mxGeometry relative="1" as="geometry">
            <mxPoint x="310" y="400" as="targetPoint" />
            <Array as="points">
              <mxPoint x="330" y="400" />
            </Array>
          </mxGeometry>
        </mxCell>
        <mxCell id="dCZkg5oeTAdfZq6XIlCl-14" value="Smart Contract" style="rounded=1;whiteSpace=wrap;html=1;" vertex="1" parent="1">
          <mxGeometry x="330" y="320" width="120" height="60" as="geometry" />
        </mxCell>
        <mxCell id="dCZkg5oeTAdfZq6XIlCl-15" value="Ethereum&lt;br&gt;&amp;nbsp;Network" style="rounded=1;whiteSpace=wrap;html=1;" vertex="1" parent="1">
          <mxGeometry x="190" y="400" width="120" height="60" as="geometry" />
        </mxCell>
        <mxCell id="dCZkg5oeTAdfZq6XIlCl-18" value="&lt;div style=&quot;&quot;&gt;&lt;span style=&quot;background-color: initial;&quot;&gt;Extensions&lt;/span&gt;&lt;/div&gt;" style="rounded=1;whiteSpace=wrap;html=1;align=left;" vertex="1" parent="1">
          <mxGeometry x="190" y="110" width="120" height="60" as="geometry" />
        </mxCell>
        <mxCell id="dCZkg5oeTAdfZq6XIlCl-21" value="" style="edgeStyle=orthogonalEdgeStyle;rounded=0;orthogonalLoop=1;jettySize=auto;html=1;" edge="1" parent="1" source="dCZkg5oeTAdfZq6XIlCl-19" target="dCZkg5oeTAdfZq6XIlCl-9">
          <mxGeometry relative="1" as="geometry" />
        </mxCell>
        <mxCell id="dCZkg5oeTAdfZq6XIlCl-19" value="" style="shape=image;verticalLabelPosition=bottom;labelBackgroundColor=default;verticalAlign=top;aspect=fixed;imageAspect=0;image=data:image/png,iVBORw0KGgoAAAANSUhEUgAAAKkAAACpCAMAAABnC+0dAAABFFBMVEX////oijpuPyDWezbAZi29rqAWFhbUwrXfgjjZfTfmfRH43czVeTcnNEVpPB+2ppbi3NfwjjwAAABgOh/VeC8PEBAADhUwLivFay/NdjTUcyNkOR7IcDFkLQDTbhNsPBp4RSLSagCDSyS7bDDngiT89/T57+qjXivkrIuwZS7ckmFiJwDt6eiMUSYdMkbKuayYVyjaiFCcgXp8VEbqwqrhoXppNg9bGAD15dx3Szu4ZDDurX8ALkfsoWnmtZjVrZPWzca2i3WKSRCNamDFt7Opk423paFoMxxwQC11SzKdVhrql1T20rzxvJeCTjc5OEOQUzZrRz5dQj+PYEOoaj7HekUtHBaPg3lzZWBQSkbKlXvJgluov4r4AAAM4UlEQVR4nO2ce3vaOBaHwS6LXYgTMu4ONoRciLmFhJAEStqUMpPLdKbMpJfpTLv7/b/HSr6AbZ1zJJOm0+dZfv+1yNLLuUhHskIut9Zaa6211lpr/R9ry/unCXI5r6/QqH/000Xr0VFITS5+OldAvdsZ/zwclR6fB1Np5Pw8Ht/IG17vatZefb88nfwDUeBNpnajblnazq207dblrqZZWttuuKP5N46C1nzkunrb0jRt91ep+292NK7aqW669rAz+RaEgSajoeua5rHlAzyfSZp7Z2O/IYuApqnbdkP/JunltaZ6w7Z1s6kFoNr4TPJIP2zIUK2uqeu63bA7pUeG5V5vsLFMs60txh9LHro50hayWASw53VX73UekXXSGdouH8fUT63l6Ecz+rHr8bKtVttzfFQeBcPHSa/WfMi97oM292KgMvd7z7Wkunooe7/cKX3lecsrdVhwBf2beteKg2q79OQfd36gU8OMWFkUTL+iYVvTXuB10fMBKjn5n43TpLUDJ0LlsPu9r5NerbnTcO1Fx7qjpUHpyd+f9lOy9rpLVB4Fw+lDo4B5vbwfw9T1rjCsxP03gkk5qtU2E6wsCi4ewOpNe3rcnLppnALD0tl/tgM+Yh3U46gcttFbzbCtUi/K9QVofU/wfOB+PPv7b0TnhxHQTKLyKOhNMy+1pekw6XUO2hVDNHT/DtrRTMj8BaqWjIDAsOXRRRbOi5TXg5xvI5xMz7ewrq6hMA2VmAOWsPujkqJG+wIm4Xlf+OSPmtQ3qxgBXO5TRbnAw8uCBBSa/bjzQ7UB1LKRV5IBcMYLElgzmFSc9lMCI0BXIxUfNJ29mmRAZPLvnyOZH0Pdawq2UTOqaNJUQQIKcf9Mk5LyOcBIW8dcidSEZ/u0UUFSaCkFzHosRIAKqeD5A5nnuXYv4ZS6ViEV5wAV96dMquJ5rvEZvBBKMypE1bpJVAX3Jx5QyPlQWDl1B6/6otIRIDdqyvNqnMymSIm6lS74cdRkySIljTtf1fMa3/TPYNKcMmmqaJW6P94WLUgAUrRCVUr+ULVw46pi1KVJM3iek14joFh5iqDGIkCVlHleZXKKNEb3J+J+j5KlLaYrifsXoO0s/bOiH93zbWUijUUAPaWGJjXLx1kMyvQc3Uj1f80QqD5qFAEkqbmK57nwmt+jSmlQ0YJFuj/4LhlyPtT4HCXN3WZ0P2cNti2EUbnzTf00q0HpDf9NluQPVTvmEUAYlX/aVCpIUqJ20bM32fsLI4AyqdlVXpbiGhMnEwrFNKQa27ag7jeAIycl0UdoaoWfiMpKFtT59VU8r/GDCers4zZr8odiEVBBSFfzPNPRHQGacZVKsMKolfZqBtVkp5LqhZ9AegybdNX+2M4EPUHx9QCbIs63VnS+5Ew6d75aoFp7WEplKJxTpGjJF+h2hbmfu94xEVJ91dzfIRNqRdLaKdtXYaSqO+ZspN5KoFZwXgXO/UYZfNugovEdPp/2r1fyfZeo/Ixw27yKVY+uUdT++Qq1VC2q/HFSvvKvMAUcEVWfd7aTcTm19ha7KYo0y9451O74lnyTcIcd9cOKn1OSpPwMMhPqriW7NXGTpb/EYQpNmnEDrb2ZSUAz1X1WfM8vI2VNs+z4ZEvUbCfDGlVLvk+RkfIz0wxWHV9SVt36RR1UOPKTk+rUKx1BOxZl1Rvl3BdfpaiQmk31Qym66svdKOa+tSccTYPLqdBIdbba3aWc76P+suIZuhqpyhsTrrE093lSyXqxrNqp8G5SlZRPAZZ0wcJPTpfqS87QrZp2cAq9QlMlZTo9PdBqEthb2c2urXPKpFbNOu46hvCiJ5AyqZ43nO5BjYyCnXN6c5KboWHKPXbc9BMcHD0Lqd/UaB4EvYLaPZKQsoyCjakdtJ18pUKMnoE0OMWsVIwmFge7Y3mgiqdo1g/WQdMxKuE2GXhXi5KibcPJt8Lj4BiIg7Fkb+IrcTTp+7yemNQxk5azkMbTr2J0j7XkfEBc7IjJW+xPfZ/X8xW1wTORJlc05q5mOxYHO5J9aaQtf50K87ySPhpBx85Gmo4VFrR+HHDYscrdY1+zI1Z/HMNHDfjQ0GE/QQpOv0bzmGWTwvoUqfBbMy8YM+iq/LVI4YqGx8Fv6qC51iFyckeNnJUUOxyuHKqD5uZPkV6wvF+JFDtyPZyrk75F+iAHhtyZ+QFfL5VBPcyk5LiQjSgf4EZ9q3wd8+IQ7oEeNztpGUNVdv9LpIP6E64qU92XU3fKoSjSsInjOMFjvIMnQVfwOIe/K4K20DANBwDk4wPfbUkFPYQEauWV4j3MOQKaz5fxUWEL1cn26PuWp4q3MH9HwpTP+xQqZFMKFH+Hpeh+D3M+k0mhAgs/QVotUxetlEgn2BzlG5VABUgdApS6FKDm/g7q/Dw3Ko4KkKKNGSj1pl3N/UQHfoWCjV4FjIS3JU2az796oPP52AwVHr2egbRMm5QtUwruxzPfl1FOWrX64o+NP/x/OyKpUfZTqnp5/+5F/BnWheQ24KHCDexXZA9s7Y9ZtVp9cXl/dXIf2gkjfXF/cnJ/uWD1QSU3LA9fSif/kgSUGzVCrXbfb5xsbGxcvatipH7yv7va2Dg52TgPWTmo/IKltErBqpOlzAi1/f6EczLdP4GnHdaUf3IftLq6umyzf/qFgPSC3VNZleK9lJIaQUlSf391tRHqhBkVIWUfHC/aMdZ6ULHIr1fKsr8l7YGnPx+qYnw6ZzHqW/XkA18cIVK9zkwatDm5uv/4yQi+qMKV1UNJoKL7kpiM0Chsd+Z8/MBoGcfpkzpCWn3HPmdZ9/6jU+G7SEPNpNI9iizzfS0zgsP+yUx79aHqwN4vP/lwdXV//uenaLPrZ6TKKPQexZNGaTTYgooBsDg4aZswqX7q+3x5EGOomVS2R5krkebTVMytOkJqmqmDA0MpSrlI92P7kpQMcO4ESZX+DxRZpaD7krQgUjCjxPrKVDUp6X58X5LGEoeDScXcMVX/poYsUiXVSUzARhRAgOxnKv5JDXN/5+HO57f11EhF+5mqJs0Te5SJskkZqvg/iqTqYzxFA1Xd+Q8gzSA8+9WdDwogzWBASGiVYuDSy/45UkzAVkSF1DCWXQSd6viob7EqZeSiJ87ixt0RIER4gFTchDnoCZs9wmxaauDncgJqWTgCMURSoYkunABU8fPABvpbJy3qCDE9gngILc5caVIGlbZplRiygYHmvJH4t6uoUfn/pdBEUgFUIMXfcOj2ECXNXUB/vhoptXUPnJaBNDhJT5GSJiV20iXiudQY4RCJCBCrFgE0/YWpQ2uXWPdbQ8L9Sf/Xo/811EgX7yaqYC+A7B5VSlOBmhxkObcoze4m2AkFqrt4gcI0J+YpPZH/sVlQXnPEX/bEPUMOZpM1v0eT1kFS+d+cleE+SJPaQ/oQjQzUuOuSs0t0sSClYJ9nJtouSam852FKgtLzVDz/U/OgyaDaf/2Q0l/dfCV9vcbBukjJlZz2TWj3Ly2SGsZ2h3v/FvXs4K3w1ZV8z2ZTyQkqPU/pC/8nPcc4X9/+C9Cz7cFrJ/VbHWAPgmybBs3lprT7I//Hx7Ht4eti8XYbQt0uFIuvh3FWs6qQ97I5imsusWno/yWp7fYYJ0p6yz97PVx+/5BU4nuijloE6lDSReC9aCDu96Kvv2HSs+DTWAxUVUyq6/L30T2ZUctLUtuMOIvFzzDp5+jzRQzU5XnPnD+SvzqVBWowFCeN/O5r8AUm/bJoEcVAWcH30jnKd/++rBfdX6KWfg9Jn4HJHyNlrGXXJ5XkPf86Kj9tKPO+P3nH/R6QQpyM9MdEKz8G5L5nC5TKe/OR1P16vdpLcjJS0PlMg2KaVcGktnSO4pLUU2z6tPf/U0yrgJEW0i0H/23YtsRxDaX7HS3KN7arD0fTSW4wSNlqc/sZqO2/U5yFYm4y7Q1t4PeGlnJVQNm+D3O/3XB705K/HnuzzUKC9Wz7R1Ap0sHmzB9kMp/2Gg0MVlZHRQLrKdtu7Pfmsd/v3NosxFk/f9mEVPjyOcZZKGwub+p6k4vhvgvGAbXXi6uUdj/z1LDXSc8b/UEhxnpXgDVYxClvXkhfgix1erorBIKreGHKSy5Tjf1hZw79GKpX2FyyDhDS+OebReC2ple66DDbJp2v+htrnYjUtl3+k63YN+TBGrFgoMGn/vcIQxRQazLVG8tAcKeKoOH5lOuWmTHpb7e1oKFIA3sP6MvkrYvRkI3poyr/9q7XYLbURxcKP3fYH0ThiJIGH20W5R5tlaYjnSXZUP1nFnt6p9RSjJUgAmTCPZ+U1yp1VOeozOoP5KwD1YvPAe4jkUaJRWj2HfyYdqAtGlT2dxnfUh4RAd+PQQPNwMWULaffk0ED9bdAfWcGXWuttdZaa6211lrr+9b/AIlYtImpNiFBAAAAAElFTkSuQmCC;" vertex="1" parent="1">
          <mxGeometry x="255" y="120" width="40" height="40" as="geometry" />
        </mxCell>
      </root>
    </mxGraphModel>
  </diagram>
</mxfile>
